<!DOCTYPE svg PUBLIC "-//W3C//DTD SVG 1.1//EN" "http://www.w3.org/Graphics/SVG/1.1/DTD/svg11.dtd">
<!-- Uploaded to: SVG Repo, www.svgrepo.com, Transformed by: SVG Repo Mixer Tools -->
<svg width="160px" height="160px" viewBox="0 0 16 16" xmlns="http://www.w3.org/2000/svg" fill="#1b263b" class="bi bi-arrow-up-right-square-fill" transform="rotate(0)">
<g id="SVGRepo_bgCarrier" stroke-width="0"/>
<g id="SVGRepo_tracerCarrier" stroke-linecap="round" stroke-linejoin="round"/>
<g id="SVGRepo_iconCarrier"> <path d="M14 0a2 2 0 0 1 2 2v12a2 2 0 0 1-2 2H2a2 2 0 0 1-2-2V2a2 2 0 0 1 2-2h12zM5.904 10.803 10 6.707v2.768a.5.5 0 0 0 1 0V5.5a.5.5 0 0 0-.5-.5H6.525a.5.5 0 1 0 0 1h2.768l-4.096 4.096a.5.5 0 0 0 .707.707z"/> </g>
</svg>