<?xml version="1.0" encoding="UTF-8"?>
<svg xmlns="http://www.w3.org/2000/svg" id="Layer_1" data-name="Layer 1" viewBox="0 0 24 24">
  <path fill="#1b263b" d="m24,5H0C0,2.243,2.243,0,5,0h14c2.757,0,5,2.243,5,5Zm-2.5,10.5c0-1.379-1.121-2.5-2.5-2.5s-2.5,1.121-2.5,2.5,1.121,2.5,2.5,2.5,2.5-1.121,2.5-2.5Zm2.293,8.109c.189-.247.254-.567.173-.868-.591-2.203-2.633-3.741-4.966-3.741s-4.375,1.538-4.966,3.741c-.081.301-.017.621.173.868.188.247.482.391.793.391h8c.311,0,.604-.145.793-.391Zm.207-16.609v6c0,.792-.202,1.531-.531,2.197-.159-2.338-2.092-4.197-4.469-4.197-2.481,0-4.5,2.019-4.5,4.5,0,.925.282,1.784.762,2.5H5c-2.757,0-5-2.243-5-5v-6h24ZM6,13.5c0-.828-.672-1.5-1.5-1.5s-1.5.672-1.5,1.5.672,1.5,1.5,1.5,1.5-.672,1.5-1.5Z"/>
</svg>

