<svg id="SvgjsSvg1012" width="288" height="288" xmlns="http://www.w3.org/2000/svg" version="1.1" xmlns:xlink="http://www.w3.org/1999/xlink" xmlns:svgjs="http://svgjs.com/svgjs"><defs id="SvgjsDefs1013"></defs><g id="SvgjsG1014"><svg xmlns="http://www.w3.org/2000/svg" viewBox="0 0 64 64" width="288" height="288"><path fill="#2b2e63" d="M32 0C14.4 0 0 14.4 0 32s14.4 32 32 32c17.7 0 32-14.4 32-32S49.7 0 32 0zm0 62.1C15.4 62.1 1.9 48.6 1.9 32S15.4 1.9 32 1.9 62.1 15.4 62.1 32 48.6 62.1 32 62.1z" class="svgShape color2b2e63-0 selectable"></path><path fill="#ededed" d="M32 1.9C15.4 1.9 1.9 15.4 1.9 32S15.4 62.1 32 62.1 62.1 48.6 62.1 32 48.6 1.9 32 1.9zm0 10.8c4.8 0 8.8 3.9 8.8 8.8 0 4.8-3.9 8.8-8.8 8.8-4.8 0-8.8-3.9-8.8-8.8.1-4.8 4-8.8 8.8-8.8zm15.9 37.7H16.1c-.5 0-1-.4-1-1 0-9.3 7.6-16.9 16.9-16.9 9.3 0 16.9 7.6 16.9 16.9 0 .6-.4 1-1 1z" class="svgShape colorededed-1 selectable"></path><path fill="#d6d6d6" d="M32 1.9C15.4 1.9 1.9 15.4 1.9 32S15.4 62.1 32 62.1 62.1 48.6 62.1 32 48.6 1.9 32 1.9zm0 58.2C16.5 60.1 3.9 47.5 3.9 32S16.5 3.9 32 3.9 60.1 16.5 60.1 32 47.5 60.1 32 60.1z" class="svgShape colord6d6d6-2 selectable"></path><path fill="#2b2e63" d="M32 32.5c-9.3 0-16.9 7.6-16.9 16.9 0 .5.4 1 1 1H48c.5 0 1-.4 1-1-.1-9.3-7.7-16.9-17-16.9zm-14.9 16c.5-7.8 7-14 14.9-14s14.4 6.2 14.9 14H17.1z" class="svgShape color2b2e63-3 selectable"></path><path fill="#1b263b" d="M46.9 48.5H17.1c.5-7.8 7-14 14.9-14s14.4 6.2 14.9 14z" class="svgShape colorf26e61-4 selectable"></path><path fill="#2b2e63" d="M32 12.7c-4.8 0-8.8 3.9-8.8 8.8 0 4.8 3.9 8.8 8.8 8.8 4.8 0 8.8-3.9 8.8-8.8 0-4.8-4-8.8-8.8-8.8zm0 15.6c-3.8 0-6.8-3-6.8-6.8s3.1-6.8 6.8-6.8c3.8 0 6.8 3.1 6.8 6.8s-3 6.8-6.8 6.8z" class="svgShape color2b2e63-5 selectable"></path><path fill="#f5bf03" d="M38.8 21.5c0 3.8-3.1 6.8-6.8 6.8-3.8 0-6.8-3-6.8-6.8s3.1-6.8 6.8-6.8c3.8 0 6.8 3 6.8 6.8z" class="svgShape colorffe5ab-6 selectable"></path><path fill="#5a9ee1" d="M32 34.5c-7.9 0-14.4 6.2-14.9 14H47c-.6-7.8-7.1-14-15-14zm0 1.5c6.5 0 12.1 4.7 13.2 11H18.8c1.1-6.3 6.7-11 13.2-11z" class="svgShape colore15e5a-7 selectable"></path><path fill="#f0dc9a" d="M32 14.7c-3.8 0-6.8 3.1-6.8 6.8s3.1 6.8 6.8 6.8c3.8 0 6.8-3 6.8-6.8s-3-6.8-6.8-6.8zm0 12.1c-2.9 0-5.3-2.4-5.3-5.3s2.4-5.3 5.3-5.3 5.3 2.4 5.3 5.3-2.4 5.3-5.3 5.3z" class="svgShape colorf0d39a-8 selectable"></path></svg></g></svg>