<?xml version="1.0" encoding="UTF-8"?>
<svg version="1.1" xmlns="http://www.w3.org/2000/svg" width="512" height="512">
<path d="M0 0 C141.24 0 282.48 0 428 0 C428 24.09 428 48.18 428 73 C418.47769531 73.02578125 408.95539063 73.0515625 399.14453125 73.078125 C393.09698489 73.10330372 387.04946999 73.12948291 381.00195312 73.16015625 C371.41186776 73.20861285 361.82188705 73.25308913 352.23168945 73.27099609 C345.24553682 73.2840596 338.25959838 73.31114299 331.27356642 73.35461307 C327.57922959 73.37712311 323.88515588 73.39291703 320.1907444 73.39188385 C316.05240115 73.39099053 311.91482583 73.42141741 307.77661133 73.45410156 C305.96722076 73.44655602 305.96722076 73.44655602 304.12127686 73.43885803 C290.96451798 73.59867358 279.62971423 77.03494327 269.84765625 85.96484375 C261.0997902 94.97335386 257.95276761 105.68412652 257.79467773 118.01513672 C257.78477814 118.68900925 257.77487854 119.36288177 257.76467896 120.05717468 C257.73331816 122.26464432 257.70840816 124.47213541 257.68359375 126.6796875 C257.66300221 128.21811453 257.64200518 129.75653618 257.62062073 131.29495239 C257.56562715 135.32917912 257.51611845 139.36345497 257.46777344 143.39776611 C257.41739176 147.52042981 257.36179299 151.64302285 257.30664062 155.765625 C257.19933719 163.84369011 257.09783137 171.92181464 257 180 C227.99699008 180.06849293 198.99398808 180.12155747 169.9909134 180.15319599 C166.56392911 180.15694794 163.13694499 180.16083092 159.70996094 180.16479492 C159.02773326 180.16558185 158.34550558 180.16636878 157.64260434 180.16717956 C146.60774108 180.18022018 135.5729249 180.20386659 124.53808953 180.23145839 C113.20853765 180.25955005 101.87902059 180.27595976 90.54943168 180.28226548 C84.18862982 180.2861739 77.82793457 180.29534977 71.4671669 180.31719017 C65.47707411 180.33759069 59.48713161 180.34382652 53.49700737 180.33932304 C51.3016713 180.34014664 49.10633007 180.3460909 46.91102409 180.35761642 C43.90592358 180.37261619 40.90138519 180.36892622 37.89627075 180.36076355 C37.03437201 180.36950207 36.17247326 180.3782406 35.28445637 180.38724393 C24.3390497 180.30728079 16.05242604 176.9700801 8.27734375 169.30078125 C-29.85508185 127.60808004 0 56.50100191 0 0 Z " fill="#f5bf03" transform="translate(42,162)"/>
<path d="M0 0 C1.29961141 -0.00384115 2.59922282 -0.00768229 3.93821639 -0.01163983 C5.37866832 -0.01085963 6.81912021 -0.00998085 8.25957203 -0.00901413 C9.79118687 -0.0115984 11.32280105 -0.01461174 12.85441428 -0.01801753 C17.06520025 -0.02608349 21.27596916 -0.02787688 25.48676193 -0.028615 C30.02747134 -0.03046625 34.56817192 -0.03801396 39.10887623 -0.04475021 C49.03868576 -0.05833118 58.96849125 -0.06435788 68.89830852 -0.06876087 C75.09878643 -0.07152369 81.29926279 -0.07576111 87.49973965 -0.08026505 C104.66779164 -0.09245739 121.83584239 -0.10275678 139.00389862 -0.10614014 C140.10265878 -0.1063597 141.20141894 -0.10657927 142.33347486 -0.10680549 C143.9855532 -0.10713291 143.9855532 -0.10713291 145.67100686 -0.10746694 C147.90282452 -0.1079104 150.13464218 -0.10835697 152.36645985 -0.10880661 C154.02704697 -0.10913875 154.02704697 -0.10913875 155.72118131 -0.10947761 C173.65873747 -0.11342547 191.596253 -0.13087928 209.53379347 -0.15416613 C227.95094378 -0.17788259 246.3680737 -0.19034212 264.78523952 -0.19150805 C275.12540704 -0.19242465 285.46552162 -0.19817303 295.80567455 -0.21632767 C304.61071805 -0.2317326 313.41569225 -0.23684678 322.22074666 -0.22858956 C326.71208847 -0.22468447 331.20329075 -0.22560582 335.69461536 -0.23964691 C339.80974442 -0.25239411 343.92462919 -0.25118116 348.03975794 -0.2390562 C349.52497407 -0.23710062 351.01020756 -0.2401712 352.49539932 -0.24890056 C365.87982006 -0.32256051 375.60828772 1.2454554 385.32568836 10.83064651 C404.41892033 31.70653896 393.60303211 77.05460456 393.60303211 95.13142776 C252.36303211 95.13142776 111.12303211 95.13142776 -34.39696789 95.13142776 C-34.39696789 19.2555657 -34.39696789 19.2555657 -23.69774914 8.40877151 C-16.74689928 2.05147738 -9.3352701 0.01036439 0 0 Z " fill="#f5bf03" transform="translate(76.39696788787842,41.86857223510742)"/>
<path d="M0 0 C11.14898502 9.51783638 18.08336949 21.32804381 20.33984375 35.9609375 C21.62752385 53.29184504 17.90041206 68.76476042 6.60546875 82.30859375 C0.04949948 89.8496848 -7.17366638 96.55083752 -16.08984375 101.23828125 C-18.20380799 102.3554474 -19.94542132 103.29242184 -21.66015625 104.9609375 C-22.32580111 107.30143071 -22.47048719 109.38412732 -22.5390625 111.8125 C-22.71223597 114.88493246 -23.72287006 116.60851856 -25.66015625 118.9609375 C-29.54003997 122.37053228 -33.33356781 122.41544944 -38.2890625 122.24609375 C-41.45087639 121.86584266 -43.26617149 121.06474229 -45.66015625 118.9609375 C-48.90329632 114.72112511 -49.17055199 110.81951465 -49.09765625 105.6484375 C-49.08790771 104.88732666 -49.07815918 104.12621582 -49.06811523 103.34204102 C-48.80353986 94.99670604 -46.66805811 90.64247367 -40.59765625 84.8984375 C-36.43895803 81.39529762 -31.98356338 78.58813463 -27.3671875 75.734375 C-18.09091213 69.65727685 -10.63838334 61.83618304 -7.66015625 50.9609375 C-6.59511074 40.39717217 -7.94814073 32.5979371 -14.34765625 24.1484375 C-19.98639216 18.14681265 -26.00505964 16.70843616 -34.09765625 16.3984375 C-42.09408629 16.6545794 -47.82965303 18.27341967 -53.6484375 23.875 C-59.66538003 30.96133489 -62.78163667 39.51863108 -65.16015625 48.3984375 C-66.37561133 52.71851211 -68.08397878 55.11833489 -71.66015625 57.9609375 C-75.13423935 59.69797905 -78.86172294 59.42135366 -82.66015625 58.9609375 C-87.04426381 56.76888372 -89.79108282 54.52978367 -91.66015625 49.9609375 C-93.51688199 35.63762467 -85.72931041 19.73882464 -77.1875 8.6328125 C-58.2623541 -14.32114652 -23.68705895 -18.15660025 0 0 Z " fill="#f5bf03" transform="translate(419.66015625,275.0390625)"/>
<path d="M0 0 C4.12974965 2.06487482 6.29527061 3.7458555 8 8 C8.7121481 13.01815989 8.52912753 16.94174495 6.25 21.5 C3.54473876 24.50584582 1.62705452 25.79628748 -2.40234375 26.30078125 C-11.19767442 26.34143763 -11.19767442 26.34143763 -15 23 C-18.40959478 19.12011628 -18.45451194 15.32658844 -18.28515625 10.37109375 C-17.76954397 6.08374235 -16.10395527 3.97014251 -12.9375 1.1875 C-8.59555592 -0.56775399 -4.61769091 -0.6723358 0 0 Z " fill="#f5bf03" transform="translate(389,435)"/>
</svg>
