<?xml version="1.0" encoding="UTF-8"?>
<svg xmlns="http://www.w3.org/2000/svg" id="Layer_1" data-name="Layer 1" viewBox="0 0 24 24">
  <path fill="#F5BF03" d="m21.998,19c1.17,0,2.099,1.003,1.993,2.168-.014.156-.03.275-.047.332-.43,1.446-1.77,2.5-3.355,2.5h-9.35c.48-.716.76-1.576.76-2.5h0c0-1.381,1.119-2.5,2.5-2.5h7.498ZM1.5,0C.672,0,0,.672,0,1.5v1c0,1.381,1.119,2.5,2.5,2.5h.5V1.5c0-.828-.672-1.5-1.5-1.5Zm3.162,0c.217.455.338.964.338,1.5v19.857c0,1.308.941,2.499,2.242,2.63,1.496.15,2.758-1.021,2.758-2.487h0c0-2.485,2.015-4.5,4.5-4.5h5.5V4c0-2.209-1.791-4-4-4H4.662Z"/>
</svg>

