<?xml version="1.0" encoding="UTF-8"?>
<svg xmlns="http://www.w3.org/2000/svg" id="Layer_1" data-name="Layer 1" viewBox="0 0 24 24">
  <path fill="#F5BF03" d="m18,12c-3.314,0-6,2.686-6,6s2.686,6,6,6,6-2.686,6-6-2.686-6-6-6Zm3.683,5.712l-2.703,2.614c-.452.446-1.052.671-1.653.671s-1.203-.225-1.663-.674l-1.354-1.332c-.395-.387-.4-1.02-.014-1.414.386-.395,1.019-.401,1.414-.014l1.353,1.331c.144.142.38.139.522-.002l2.713-2.624c.397-.381,1.031-.37,1.414.029.382.398.369,1.031-.029,1.414ZM8.344,7.226L14.646,1.073c1.51-1.173,3.618-1.393,5.308-.548,0,0,1.511,1.089,3.205,1.395.483.087.841.492.841.982v9.818c-1.466-1.665-3.607-2.721-6-2.721-.572,0-1.13.063-1.668.177l-2.822-2.358,1.181-1.097c.399-.382.413-1.015.031-1.414-.382-.399-1.015-.413-1.414-.031l-3.618,3.429c-.207.208-.493.315-.788.29-.298-.024-.56-.175-.739-.425-.274-.38-.19-.975.181-1.347Zm2.127,13.457c-.303-.126-.599-.279-.871-.482l-6.133-4.6c-.519-.39-1.151-.6-1.8-.6h-.667c-.552,0-1-.448-1-1V2.937c0-.508.379-.931.884-.988,1.357-.151,2.579-.696,3.829-1.424.687-.344,1.456-.525,2.227-.525,1.28,0,2.471.461,3.39,1.298l.617.593-4.007,3.911c-1.073,1.072-1.244,2.767-.398,3.938.52.723,1.461,1.259,2.444,1.259.793,0,1.554-.312,2.104-.863l.967-.925,2.113,1.765c-2.483,1.358-4.168,3.993-4.168,7.023,0,.942.171,1.843.471,2.682Z"/>
</svg>

